<mxfile host="app.diagrams.net" agent="Mozilla/5.0 (Windows NT 10.0; Win64; x64) AppleWebKit/537.36 (KHTML, like Gecko) Chrome/130.0.0.0 Safari/537.36" version="24.8.6">
  <diagram name="Page-1" id="hbCVJvUcYhDOaeXZcaSB">
    <mxGraphModel dx="1012" dy="540" grid="1" gridSize="2" guides="1" tooltips="1" connect="1" arrows="1" fold="1" page="1" pageScale="1" pageWidth="850" pageHeight="1100" math="0" shadow="0">
      <root>
        <mxCell id="0" />
        <mxCell id="1" parent="0" />
        <mxCell id="Jp7HRxX85I0sYCaLeI33-17" style="edgeStyle=orthogonalEdgeStyle;rounded=0;orthogonalLoop=1;jettySize=auto;html=1;entryX=0.5;entryY=1;entryDx=0;entryDy=0;" edge="1" parent="1" source="Jp7HRxX85I0sYCaLeI33-2" target="Jp7HRxX85I0sYCaLeI33-4">
          <mxGeometry relative="1" as="geometry" />
        </mxCell>
        <mxCell id="Jp7HRxX85I0sYCaLeI33-2" value="ADC Resampler" style="rounded=1;whiteSpace=wrap;html=1;" vertex="1" parent="1">
          <mxGeometry x="360" y="530" width="100" height="150" as="geometry" />
        </mxCell>
        <mxCell id="Jp7HRxX85I0sYCaLeI33-4" value="ADC Control" style="rounded=1;whiteSpace=wrap;html=1;" vertex="1" parent="1">
          <mxGeometry x="350" y="440" width="120" height="60" as="geometry" />
        </mxCell>
        <mxCell id="Jp7HRxX85I0sYCaLeI33-5" value="ADC 1" style="rounded=1;whiteSpace=wrap;html=1;" vertex="1" parent="1">
          <mxGeometry x="350" y="380" width="40" height="20" as="geometry" />
        </mxCell>
        <mxCell id="Jp7HRxX85I0sYCaLeI33-6" value="ADC 2" style="rounded=1;whiteSpace=wrap;html=1;" vertex="1" parent="1">
          <mxGeometry x="430" y="380" width="40" height="20" as="geometry" />
        </mxCell>
        <mxCell id="Jp7HRxX85I0sYCaLeI33-8" value="Internal Memory" style="rounded=1;whiteSpace=wrap;html=1;" vertex="1" parent="1">
          <mxGeometry x="174" y="520" width="68" height="160" as="geometry" />
        </mxCell>
        <mxCell id="Jp7HRxX85I0sYCaLeI33-9" value="IV Saver" style="rounded=1;whiteSpace=wrap;html=1;" vertex="1" parent="1">
          <mxGeometry x="522" y="530" width="68" height="42" as="geometry" />
        </mxCell>
        <mxCell id="Jp7HRxX85I0sYCaLeI33-11" value="" style="endArrow=classic;html=1;rounded=0;entryX=0.5;entryY=1;entryDx=0;entryDy=0;" edge="1" parent="1" target="Jp7HRxX85I0sYCaLeI33-5">
          <mxGeometry width="50" height="50" relative="1" as="geometry">
            <mxPoint x="369.92" y="440" as="sourcePoint" />
            <mxPoint x="369.92" y="410" as="targetPoint" />
            <Array as="points">
              <mxPoint x="369.92" y="430" />
            </Array>
          </mxGeometry>
        </mxCell>
        <mxCell id="Jp7HRxX85I0sYCaLeI33-14" value="" style="endArrow=classic;html=1;rounded=0;entryX=0.5;entryY=1;entryDx=0;entryDy=0;" edge="1" parent="1" target="Jp7HRxX85I0sYCaLeI33-6">
          <mxGeometry width="50" height="50" relative="1" as="geometry">
            <mxPoint x="449.92" y="440" as="sourcePoint" />
            <mxPoint x="449.92" y="410" as="targetPoint" />
            <Array as="points">
              <mxPoint x="449.92" y="430" />
            </Array>
          </mxGeometry>
        </mxCell>
        <mxCell id="Jp7HRxX85I0sYCaLeI33-15" value="" style="endArrow=none;dashed=1;html=1;dashPattern=1 3;strokeWidth=2;rounded=0;" edge="1" parent="1">
          <mxGeometry width="50" height="50" relative="1" as="geometry">
            <mxPoint x="330" y="420" as="sourcePoint" />
            <mxPoint x="480" y="420" as="targetPoint" />
          </mxGeometry>
        </mxCell>
        <mxCell id="Jp7HRxX85I0sYCaLeI33-16" value="External component" style="text;html=1;align=center;verticalAlign=middle;whiteSpace=wrap;rounded=0;" vertex="1" parent="1">
          <mxGeometry x="280" y="390" width="60" height="30" as="geometry" />
        </mxCell>
        <mxCell id="Jp7HRxX85I0sYCaLeI33-18" value="&#39;acquire start&#39;" style="text;html=1;align=center;verticalAlign=middle;whiteSpace=wrap;rounded=0;" vertex="1" parent="1">
          <mxGeometry x="412" y="500" width="80" height="30" as="geometry" />
        </mxCell>
        <mxCell id="Jp7HRxX85I0sYCaLeI33-24" value="&#39;busy&#39;" style="text;html=1;align=center;verticalAlign=middle;whiteSpace=wrap;rounded=0;" vertex="1" parent="1">
          <mxGeometry x="460" y="528" width="60" height="30" as="geometry" />
        </mxCell>
        <mxCell id="Jp7HRxX85I0sYCaLeI33-26" value="&#39;sample s&lt;span style=&quot;background-color: initial;&quot;&gt;ize&#39;&lt;/span&gt;" style="text;html=1;align=center;verticalAlign=middle;whiteSpace=wrap;rounded=0;" vertex="1" parent="1">
          <mxGeometry x="260" y="566" width="85" height="10" as="geometry" />
        </mxCell>
        <mxCell id="Jp7HRxX85I0sYCaLeI33-33" value="" style="endArrow=classic;html=1;rounded=0;entryX=0;entryY=0.133;entryDx=0;entryDy=0;entryPerimeter=0;exitX=1.006;exitY=0.187;exitDx=0;exitDy=0;exitPerimeter=0;" edge="1" parent="1" source="Jp7HRxX85I0sYCaLeI33-8" target="Jp7HRxX85I0sYCaLeI33-2">
          <mxGeometry width="50" height="50" relative="1" as="geometry">
            <mxPoint x="270" y="550" as="sourcePoint" />
            <mxPoint x="320" y="500" as="targetPoint" />
          </mxGeometry>
        </mxCell>
        <mxCell id="Jp7HRxX85I0sYCaLeI33-34" value="&#39;sample start&#39;" style="text;html=1;align=center;verticalAlign=middle;whiteSpace=wrap;rounded=0;" vertex="1" parent="1">
          <mxGeometry x="257.5" y="536" width="90" height="10" as="geometry" />
        </mxCell>
        <mxCell id="Jp7HRxX85I0sYCaLeI33-42" value="" style="endArrow=classic;html=1;rounded=0;exitX=1;exitY=0.375;exitDx=0;exitDy=0;exitPerimeter=0;entryX=0;entryY=0.267;entryDx=0;entryDy=0;entryPerimeter=0;" edge="1" parent="1" source="Jp7HRxX85I0sYCaLeI33-8">
          <mxGeometry width="50" height="50" relative="1" as="geometry">
            <mxPoint x="270" y="580.0300000000001" as="sourcePoint" />
            <mxPoint x="360" y="580.0000000000001" as="targetPoint" />
          </mxGeometry>
        </mxCell>
        <mxCell id="Jp7HRxX85I0sYCaLeI33-44" value="" style="endArrow=none;html=1;rounded=0;jumpSize=1;startSize=3;endSize=3;" edge="1" parent="1">
          <mxGeometry width="50" height="50" relative="1" as="geometry">
            <mxPoint x="306" y="584" as="sourcePoint" />
            <mxPoint x="314" y="576" as="targetPoint" />
          </mxGeometry>
        </mxCell>
        <mxCell id="Jp7HRxX85I0sYCaLeI33-45" value="16" style="text;html=1;align=center;verticalAlign=middle;whiteSpace=wrap;rounded=0;" vertex="1" parent="1">
          <mxGeometry x="310" y="580" width="10" height="10" as="geometry" />
        </mxCell>
        <mxCell id="Jp7HRxX85I0sYCaLeI33-48" value="" style="endArrow=classic;html=1;rounded=0;exitX=1.006;exitY=0.561;exitDx=0;exitDy=0;exitPerimeter=0;entryX=0;entryY=0.267;entryDx=0;entryDy=0;entryPerimeter=0;" edge="1" parent="1" source="Jp7HRxX85I0sYCaLeI33-8">
          <mxGeometry width="50" height="50" relative="1" as="geometry">
            <mxPoint x="270" y="610.0300000000001" as="sourcePoint" />
            <mxPoint x="360" y="610.0000000000001" as="targetPoint" />
          </mxGeometry>
        </mxCell>
        <mxCell id="Jp7HRxX85I0sYCaLeI33-49" value="" style="endArrow=classic;html=1;rounded=0;exitX=1;exitY=0.75;exitDx=0;exitDy=0;entryX=0;entryY=0.267;entryDx=0;entryDy=0;entryPerimeter=0;" edge="1" parent="1" source="Jp7HRxX85I0sYCaLeI33-8">
          <mxGeometry width="50" height="50" relative="1" as="geometry">
            <mxPoint x="270" y="640.0300000000001" as="sourcePoint" />
            <mxPoint x="360" y="640.0000000000001" as="targetPoint" />
          </mxGeometry>
        </mxCell>
        <mxCell id="Jp7HRxX85I0sYCaLeI33-50" value="" style="endArrow=none;html=1;rounded=0;jumpSize=1;startSize=3;endSize=3;" edge="1" parent="1">
          <mxGeometry width="50" height="50" relative="1" as="geometry">
            <mxPoint x="306" y="614" as="sourcePoint" />
            <mxPoint x="314" y="606" as="targetPoint" />
          </mxGeometry>
        </mxCell>
        <mxCell id="Jp7HRxX85I0sYCaLeI33-51" value="" style="endArrow=none;html=1;rounded=0;jumpSize=1;startSize=3;endSize=3;" edge="1" parent="1">
          <mxGeometry width="50" height="50" relative="1" as="geometry">
            <mxPoint x="306" y="644" as="sourcePoint" />
            <mxPoint x="314" y="636" as="targetPoint" />
          </mxGeometry>
        </mxCell>
        <mxCell id="Jp7HRxX85I0sYCaLeI33-52" value="16" style="text;html=1;align=center;verticalAlign=middle;whiteSpace=wrap;rounded=0;" vertex="1" parent="1">
          <mxGeometry x="310" y="612" width="10" height="10" as="geometry" />
        </mxCell>
        <mxCell id="Jp7HRxX85I0sYCaLeI33-53" value="16" style="text;html=1;align=center;verticalAlign=middle;whiteSpace=wrap;rounded=0;" vertex="1" parent="1">
          <mxGeometry x="310" y="642" width="10" height="10" as="geometry" />
        </mxCell>
        <mxCell id="Jp7HRxX85I0sYCaLeI33-54" value="&#39;sample frq high word&#39;" style="text;html=1;align=center;verticalAlign=middle;whiteSpace=wrap;rounded=0;" vertex="1" parent="1">
          <mxGeometry x="236" y="594" width="130" height="12" as="geometry" />
        </mxCell>
        <mxCell id="Jp7HRxX85I0sYCaLeI33-56" value="&#39;sample frq low word&#39;" style="text;html=1;align=center;verticalAlign=middle;whiteSpace=wrap;rounded=0;" vertex="1" parent="1">
          <mxGeometry x="236" y="624" width="130" height="12" as="geometry" />
        </mxCell>
        <mxCell id="Jp7HRxX85I0sYCaLeI33-59" value="IV Saver" style="rounded=1;whiteSpace=wrap;html=1;" vertex="1" parent="1">
          <mxGeometry x="522" y="638" width="68" height="42" as="geometry" />
        </mxCell>
        <mxCell id="Jp7HRxX85I0sYCaLeI33-60" style="edgeStyle=orthogonalEdgeStyle;rounded=0;orthogonalLoop=1;jettySize=auto;html=1;endArrow=none;endFill=0;startArrow=classic;startFill=1;" edge="1" parent="1" source="Jp7HRxX85I0sYCaLeI33-9">
          <mxGeometry relative="1" as="geometry">
            <mxPoint x="460" y="551" as="targetPoint" />
          </mxGeometry>
        </mxCell>
        <mxCell id="Jp7HRxX85I0sYCaLeI33-62" style="edgeStyle=orthogonalEdgeStyle;rounded=0;orthogonalLoop=1;jettySize=auto;html=1;entryX=1.002;entryY=0.86;entryDx=0;entryDy=0;entryPerimeter=0;" edge="1" parent="1" source="Jp7HRxX85I0sYCaLeI33-59" target="Jp7HRxX85I0sYCaLeI33-2">
          <mxGeometry relative="1" as="geometry" />
        </mxCell>
        <mxCell id="Jp7HRxX85I0sYCaLeI33-63" value="&#39;reset logic" style="text;html=1;align=center;verticalAlign=middle;resizable=0;points=[];autosize=1;strokeColor=none;fillColor=none;" vertex="1" parent="1">
          <mxGeometry x="452" y="636" width="76" height="28" as="geometry" />
        </mxCell>
      </root>
    </mxGraphModel>
  </diagram>
</mxfile>
